<svg width="64" height="64" viewBox="0 0 64 64" fill="none" xmlns="http://www.w3.org/2000/svg">
  <defs>
    <linearGradient id="grad1" x1="0%" y1="0%" x2="100%" y2="100%">
      <stop offset="0%" style="stop-color:#00ffff;stop-opacity:1" />
      <stop offset="100%" style="stop-color:#0099cc;stop-opacity:1" />
    </linearGradient>
  </defs>
  
  <!-- Background circle -->
  <circle cx="32" cy="32" r="30" fill="url(#grad1)" opacity="0.1" stroke="url(#grad1)" stroke-width="2"/>
  
  <!-- Brain/AI symbol -->
  <path d="M20 24 C20 20, 24 16, 28 16 C30 14, 34 14, 36 16 C40 16, 44 20, 44 24 C44 26, 42 28, 40 28 C42 30, 44 32, 44 36 C44 40, 40 44, 36 44 C34 46, 30 46, 28 44 C24 44, 20 40, 20 36 C20 34, 22 32, 24 32 C22 30, 20 28, 20 24 Z" 
        fill="none" stroke="url(#grad1)" stroke-width="2"/>
  
  <!-- Neural connections -->
  <circle cx="26" cy="26" r="2" fill="url(#grad1)"/>
  <circle cx="38" cy="26" r="2" fill="url(#grad1)"/>
  <circle cx="32" cy="32" r="2" fill="url(#grad1)"/>
  <circle cx="26" cy="38" r="2" fill="url(#grad1)"/>
  <circle cx="38" cy="38" r="2" fill="url(#grad1)"/>
  
  <!-- Connection lines -->
  <line x1="26" y1="26" x2="32" y2="32" stroke="url(#grad1)" stroke-width="1" opacity="0.6"/>
  <line x1="38" y1="26" x2="32" y2="32" stroke="url(#grad1)" stroke-width="1" opacity="0.6"/>
  <line x1="32" y1="32" x2="26" y2="38" stroke="url(#grad1)" stroke-width="1" opacity="0.6"/>
  <line x1="32" y1="32" x2="38" y2="38" stroke="url(#grad1)" stroke-width="1" opacity="0.6"/>
  
  <!-- CALI text (simplified) -->
  <text x="32" y="54" font-family="Arial, sans-serif" font-size="8" fill="url(#grad1)" text-anchor="middle" font-weight="bold">CALI</text>
</svg>
